<svg width="600" height="400" xmlns="http://www.w3.org/2000/svg">
  <!-- Background gradient -->
  <defs>
    <linearGradient id="grad1" x1="0%" y1="0%" x2="100%" y2="100%">
      <stop offset="0%" style="stop-color:#2563eb;stop-opacity:1" />
      <stop offset="100%" style="stop-color:#1e40af;stop-opacity:1" />
    </linearGradient>
  </defs>
  <rect width="600" height="400" fill="url(#grad1)"/>
  
  <!-- Browser window mockup -->
  <rect x="50" y="50" width="500" height="300" rx="8" fill="#ffffff" opacity="0.95"/>
  <rect x="50" y="50" width="500" height="30" rx="8" fill="#f3f4f6"/>
  <circle cx="70" cy="65" r="5" fill="#ef4444"/>
  <circle cx="90" cy="65" r="5" fill="#fbbf24"/>
  <circle cx="110" cy="65" r="5" fill="#10b981"/>
  
  <!-- Hero section mockup -->
  <circle cx="150" cy="150" r="40" fill="#e5e7eb"/>
  <rect x="210" y="120" width="200" height="20" rx="4" fill="#1f2937"/>
  <rect x="210" y="150" width="150" height="15" rx="4" fill="#6b7280"/>
  <rect x="210" y="175" width="180" height="12" rx="4" fill="#9ca3af"/>
  
  <!-- Tech badges -->
  <rect x="80" y="220" width="80" height="25" rx="4" fill="#dbeafe"/>
  <rect x="170" y="220" width="80" height="25" rx="4" fill="#dbeafe"/>
  <rect x="260" y="220" width="80" height="25" rx="4" fill="#dbeafe"/>
  <rect x="350" y="220" width="80" height="25" rx="4" fill="#dbeafe"/>
  
  <!-- Projects section preview -->
  <rect x="80" y="270" width="130" height="60" rx="6" fill="#f9fafb" stroke="#e5e7eb" stroke-width="2"/>
  <rect x="235" y="270" width="130" height="60" rx="6" fill="#f9fafb" stroke="#e5e7eb" stroke-width="2"/>
  <rect x="390" y="270" width="130" height="60" rx="6" fill="#f9fafb" stroke="#e5e7eb" stroke-width="2"/>
  
  <!-- Text label -->
  <text x="300" y="380" font-family="Arial, sans-serif" font-size="24" fill="#ffffff" text-anchor="middle" font-weight="bold">Portfolio mystya.dev</text>
</svg>
